:SAMPLES-PER-SECOND 30
:FULLY-SPECIFIED
:DEGREES
448
root  -11.1897 39.5716 -27.8772 -0.961923 -23.3458 0.068495
RightUpLeg  -5.99148 -7.95445 -4.39492
RightLeg  16.1122 -14.1357 -5.00804
RightFoot  -7.46488 -0.36321 9.20662
RightToes  -5.82094e-011 -1.98785e-016 -5.10186e-018
Spine  17.6046 -0.7243 4.33984
Spine1  1.25692 -0.131494 1.94387
HEad  5.87404 26.5599 -14.9034
LeftShoulder1  1.26117 -0.675696 -23.9119
LeftArm  -21.0188 22.8431 -47.4969
LeftForeArm  -149.9 -71.7729 -155.633
LeftHand  -1.01251 -1.88581 16.2929
RightShoulder  2.50704 4.26082 26.2788
RightArm  9.52671 -25.6069 35.9479
RightForeArm  6.11041 24.794 4.9718
RightHand  -2.06304 7.16998 -19.2199
LeftUpLeg  -11.7518 1.60535 6.62966
LeftLeg  37.254 5.10497 4.51695
LeftFoot  -5.0334 0.139778 -1.98336
LeftToes  -8.4584e-011 5.90861e-011 8.40072e-012
449
root  -10.5879 39.6114 -28.5007 -1.36792 -24.3782 0.264981
RightUpLeg  -7.07016 -7.67372 -4.88894
RightLeg  15.6647 -13.409 -4.69065
RightFoot  -5.71654 -0.474511 8.84858
RightToes  -5.82094e-011 -1.98785e-016 -5.10186e-018
Spine  16.8351 -0.828658 1.6986
Spine1  1.65528 -1.06569 3.9536
HEad  7.47207 28.9547 -15.2359
LeftShoulder1  1.17142 -0.36167 -24.0564
LeftArm  -23.2755 22.7323 -48.5708
LeftForeArm  -149.97 -72.2615 -154.909
LeftHand  -1.07273 -1.76219 17.5209
RightShoulder  2.35356 3.77992 26.3085
RightArm  9.96152 -26.3218 35.5928
RightForeArm  2.61876 20.5755 4.79337
RightHand  -2.17401 6.73973 -20.8992
LeftUpLeg  -6.85336 1.89676 8.21626
LeftLeg  36.9378 7.63496 6.48634
LeftFoot  -5.29905 0.0987978 -1.29727
LeftToes  -8.4584e-011 5.90861e-011 8.40072e-012
450
root  -9.95056 39.5792 -29.1069 -1.804 -25.1625 0.286652
RightUpLeg  -8.25416 -7.2491 -5.28997
RightLeg  15.7779 -13.0156 -4.54525
RightFoot  -4.18013 -0.562135 8.51066
RightToes  -5.82094e-011 -1.98785e-016 -5.10186e-018
Spine  15.7322 -0.98059 -1.05317
Spine1  2.69222 -2.22362 6.34909
HEad  8.51484 31.2603 -15.534
LeftShoulder1  1.14008 -0.213616 -24.4338
LeftArm  -25.7076 22.4594 -49.3777
LeftForeArm  -150.499 -72.8606 -153.93
LeftHand  -1.11018 -1.96215 17.6502
RightShoulder  2.27287 3.53109 26.3078
RightArm  6.43313 -27.0847 35.0088
RightForeArm  2.04959 17.3178 6.22198
RightHand  -2.35394 6.55245 -22.8896
LeftUpLeg  -1.6596 2.52985 9.73028
LeftLeg  34.8875 9.16658 7.16517
LeftFoot  -5.20687 0.16731 -2.56043
LeftToes  -8.4584e-011 5.90861e-011 8.40072e-012
451
root  -9.2708 39.5358 -29.692 -2.57397 -25.7346 0.434909
RightUpLeg  -8.99471 -7.33963 -5.96527
RightLeg  15.6506 -12.3198 -4.22601
RightFoot  -2.6046 -0.655794 8.33551
RightToes  -5.82094e-011 -1.98785e-016 -5.10186e-018
Spine  14.8971 -1.27143 -3.34168
Spine1  4.22798 -3.30253 7.60019
HEad  8.72541 33.147 -15.8648
LeftShoulder1  1.15223 -0.238624 -24.5622
LeftArm  -27.3319 21.6823 -49.4955
LeftForeArm  -151.642 -73.2067 -153.247
LeftHand  -1.0069 -1.06591 18.1832
RightShoulder  2.19809 3.26175 26.5001
RightArm  2.84436 -27.8957 34.4426
RightForeArm  2.90603 15.7898 7.30948
RightHand  -2.50285 6.85514 -23.7146
LeftUpLeg  3.92713 3.36621 10.8098
LeftLeg  30.9433 9.79596 6.64744
LeftFoot  -3.2614 0.267058 -3.41169
LeftToes  -8.4584e-011 5.90861e-011 8.40072e-012
452
root  -8.53379 39.4215 -30.26 -2.86905 -26.2737 0.540601
RightUpLeg  -10.4514 -7.09731 -6.59726
RightLeg  15.9297 -11.9369 -4.09619
RightFoot  -1.11697 -0.753693 8.32363
RightToes  -5.82094e-011 -1.98785e-016 -5.10186e-018
Spine  14.1105 -1.50818 -5.13853
Spine1  5.31173 -4.10004 8.06185
HEad  8.68597 34.287 -15.751
LeftShoulder1  1.20065 -0.438506 -24.2164
LeftArm  -28.4087 20.9432 -49.5359
LeftForeArm  -151.839 -73.3489 -152.986
LeftHand  -0.990421 -0.680517 18.9805
RightShoulder  2.14773 3.0368 26.864
RightArm  0.220927 -28.5382 33.9315
RightForeArm  4.71068 14.8546 7.85981
RightHand  -2.39542 6.79672 -22.843
LeftUpLeg  8.69206 4.52254 11.6473
LeftLeg  26.2683 8.78414 5.03089
LeftFoot  -3.12685 0.59214 -8.13939
LeftToes  -8.4584e-011 5.90861e-011 8.40072e-012
453
root  -7.69249 39.2066 -30.8405 -2.65817 -26.7044 1.04233
RightUpLeg  -13.2341 -7.60169 -7.65881
RightLeg  17.112 -10.9069 -3.95287
RightFoot  0.149858 -0.84709 8.41473
RightToes  -5.82094e-011 -1.98785e-016 -5.10186e-018
Spine  13.3496 -1.52087 -7.59187
Spine1  5.95025 -4.92687 9.24594
HEad  7.94498 34.8647 -16.1833
LeftShoulder1  1.26355 -0.653764 -24.1467
LeftArm  -29.0431 20.0384 -49.4983
LeftForeArm  -152.212 -73.5261 -152.64
LeftHand  -1.0084 -0.697306 19.2751
RightShoulder  2.06455 2.77416 26.9186
RightArm  -0.0507399 -28.4523 33.5365
RightForeArm  6.37807 14.5354 8.01355
RightHand  -2.28986 7.19281 -21.209
LeftUpLeg  11.6417 6.06425 11.4451
LeftLeg  21.3183 7.27035 3.46693
LeftFoot  -5.83577 0.72906 -14.5295
LeftToes  -8.4584e-011 5.90861e-011 8.40072e-012
454
root  -6.7457 39.0027 -31.4989 -2.54565 -26.8609 1.822
RightUpLeg  -15.7872 -7.92943 -9.04438
RightLeg  17.3964 -10.3666 -3.81621
RightFoot  2.12563 -0.991546 8.50625
RightToes  -5.82094e-011 -1.98785e-016 -5.10186e-018
Spine  13.5327 -1.29463 -10.6565
Spine1  6.22273 -5.82304 11.2659
HEad  6.10607 34.7574 -17.0657
LeftShoulder1  1.32465 -0.800371 -24.5581
LeftArm  -29.2079 18.2092 -49.1731
LeftForeArm  -153.06 -73.9321 -151.823
LeftHand  -0.978046 -0.436015 19.5139
RightShoulder  2.09275 2.86832 26.8725
RightArm  1.24455 -27.7755 33.2329
RightForeArm  6.07828 15.0434 7.68153
RightHand  -2.21541 7.28715 -20.4028
LeftUpLeg  12.9076 7.94508 10.4616
LeftLeg  16.5304 5.83222 2.24769
LeftFoot  -9.88129 0.299282 -18.2719
LeftToes  -8.4584e-011 5.90861e-011 8.40072e-012
455
root  -5.67821 38.8542 -32.2225 -2.41045 -27.5147 1.86826
RightUpLeg  -17.1192 -6.1433 -9.86089
RightLeg  15.4315 -11.6652 -3.83628
RightFoot  5.36763 -1.22996 8.62028
RightToes  -5.82094e-011 -1.98785e-016 -5.10186e-018
Spine  14.8495 -0.888041 -12.0196
Spine1  6.22131 -6.00128 12.2513
HEad  3.74454 34.2334 -17.6764
LeftShoulder1  1.37953 -1.00449 -24.3698
LeftArm  -29.0898 16.1457 -49.1329
LeftForeArm  -153.538 -74.3606 -150.96
LeftHand  -0.995421 -0.559703 19.4549
RightShoulder  2.19677 3.1201 27.2
RightArm  2.07649 -26.7893 33.5207
RightForeArm  5.97566 15.9785 6.97119
RightHand  -2.23095 7.54033 -20.1531
LeftUpLeg  12.5955 8.66074 9.22533
LeftLeg  14.4723 6.55794 2.11863
LeftFoot  -13.2609 -0.224351 -18.454
LeftToes  -8.4584e-011 5.90861e-011 8.40072e-012
456
root  -4.5681 38.838 -32.9662 -2.53199 -28.6983 2.14809
RightUpLeg  -17.0693 -5.48795 -10.3787
RightLeg  10.5269 -11.7713 -3.51428
RightFoot  9.35381 -1.61706 9.15281
RightToes  -5.82094e-011 -1.98785e-016 -5.10186e-018
Spine  16.0814 -0.301842 -13.1408
Spine1  7.0526 -5.85237 12.4663
HEad  0.955248 33.2883 -17.815
LeftShoulder1  1.43345 -1.17296 -24.4342
LeftArm  -28.7331 13.645 -48.6618
LeftForeArm  -154.229 -74.8609 -149.871
LeftHand  -1.00419 -0.708132 19.1579
RightShoulder  2.33135 3.39283 27.8639
RightArm  3.47628 -25.1226 34.1752
RightForeArm  4.54003 17.6211 5.89488
RightHand  -2.12508 7.45982 -19.3482
LeftUpLeg  11.5373 8.24779 6.99807
LeftLeg  13.418 9.47451 2.52596
LeftFoot  -14.9865 -0.416414 -15.7587
LeftToes  -8.4584e-011 5.90861e-011 8.40072e-012
457
root  -3.50591 38.947 -33.6277 -2.49745 -30.2263 2.3685
RightUpLeg  -16.2185 -8.6339 -9.63652
RightLeg  3.86043 -8.76447 -3.24602
RightFoot  11.2561 -2.0283 10.5302
RightToes  -5.82094e-011 -1.98785e-016 -5.10186e-018
Spine  16.7565 0.168867 -13.6164
Spine1  7.89402 -5.44862 11.9462
HEad  -1.54599 32.3792 -17.6068
LeftShoulder1  1.57911 -1.72318 -23.9692
LeftArm  -28.7122 12.5344 -48.5186
LeftForeArm  -154.939 -75.3504 -148.74
LeftHand  -1.05655 -0.957745 19.3712
RightShoulder  2.43234 3.65587 28.0361
RightArm  3.98804 -24.4429 35.9478
RightForeArm  2.99021 19.9581 4.86093
RightHand  -2.06497 7.25226 -19.1164
LeftUpLeg  10.7581 7.89433 5.0896
LeftLeg  11.7089 12.3937 2.33591
LeftFoot  -15.3212 -0.375231 -13.3005
LeftToes  -8.4584e-011 5.90861e-011 8.40072e-012
458
root  -2.51016 39.2098 -34.1866 -1.33729 -31.8544 1.60774
RightUpLeg  -16.095 -9.6224 -8.78232
RightLeg  -0.717247 -10.4724 -2.8454
RightFoot  7.50237 -1.72075 10.6634
RightToes  -5.82094e-011 -1.98785e-016 -5.10186e-018
Spine  16.6909 0.0626148 -12.537
Spine1  8.34864 -5.13818 11.1309
HEad  -2.84365 31.7771 -17.2059
LeftShoulder1  1.63243 -1.92008 -23.8536
LeftArm  -28.1717 13.2731 -47.9989
LeftForeArm  -154.077 -75.2052 -149.156
LeftHand  -1.0063 -0.740325 19.1033
RightShoulder  2.54739 4.01037 27.9551
RightArm  3.43732 -24.5241 37.4375
RightForeArm  4.80912 22.633 4.5708
RightHand  -2.02644 7.62652 -18.2561
LeftUpLeg  9.55537 6.48748 3.69752
LeftLeg  9.4536 16.5469 2.31747
LeftFoot  -14.4402 -0.209637 -10.9384
LeftToes  -8.4584e-011 5.90861e-011 8.40072e-012
459
root  -1.69003 39.4463 -34.7002 -0.523588 -33.0446 0.780542
RightUpLeg  -15.4711 -9.27495 -8.68091
RightLeg  -2.35453 -17.9088 -2.28914
RightFoot  5.41933 -1.66673 11.5152
RightToes  -5.82094e-011 -1.98785e-016 -5.10186e-018
Spine  16.8657 -0.0147238 -11.9062
Spine1  8.32126 -4.93883 10.6211
HEad  -4.8885 31.7083 -18.2099
LeftShoulder1  1.5527 -1.60037 -24.1919
LeftArm  -27.1405 14.3141 -47.5478
LeftForeArm  -153.936 -75.0378 -149.535
LeftHand  -1.00228 -0.848503 18.7082
RightShoulder  2.56101 3.99154 28.2318
RightArm  2.26053 -24.0259 37.9906
RightForeArm  9.22064 24.8702 4.83978
RightHand  -1.87857 8.09 -16.4079
LeftUpLeg  7.89172 5.7332 2.90863
LeftLeg  9.21245 18.8958 2.91915
LeftFoot  -13.1804 -0.0873762 -10.3412
LeftToes  -8.4584e-011 5.90861e-011 8.40072e-012
460
root  -1.01051 39.6122 -35.1775 -0.18126 -34.3346 0.204544
RightUpLeg  -15.5025 -9.63443 -8.62828
RightLeg  2.10849 -22.4621 -2.83351
RightFoot  5.78398 -1.7842 12.0431
RightToes  -5.82094e-011 -1.98785e-016 -5.10186e-018
Spine  17.2756 0.144444 -11.4696
Spine1  7.83871 -4.56772 10.1423
HEad  -6.49266 31.8322 -18.6377
LeftShoulder1  1.46862 -1.30191 -24.3314
LeftArm  -26.2396 15.884 -47.7132
LeftForeArm  -153.831 -75.0626 -149.493
LeftHand  -0.990725 -0.727107 18.854
RightShoulder  2.58843 4.02871 28.4318
RightArm  1.30235 -23.9479 38.46
RightForeArm  12.3681 26.923 5.13271
RightHand  -1.74158 8.43978 -14.8832
LeftUpLeg  6.57585 5.69808 2.54635
LeftLeg  9.49361 20.3845 3.27589
LeftFoot  -12.199 0.000327071 -9.66819
LeftToes  -8.4584e-011 5.90861e-011 8.40072e-012
461
root  -0.425281 39.7692 -35.6017 0.267084 -35.4447 -0.451901
RightUpLeg  -15.817 -10.8635 -8.1978
RightLeg  9.49086 -19.2945 -3.84713
RightFoot  3.85512 -1.31772 10.0589
RightToes  -5.82094e-011 -1.98785e-016 -5.10186e-018
Spine  17.3678 0.115419 -10.5645
Spine1  7.1812 -4.20135 9.26777
HEad  -7.74847 32.219 -18.2007
LeftShoulder1  1.44447 -1.28893 -23.8915
LeftArm  -25.5852 18.1381 -48.7082
LeftForeArm  -153.154 -74.8315 -150.057
LeftHand  -0.951709 -0.413492 19.0684
RightShoulder  2.67087 4.24576 28.5349
RightArm  0.810057 -24.3157 39.1256
RightForeArm  12.9376 28.3328 5.42742
RightHand  -1.7972 8.41836 -15.3669
LeftUpLeg  5.36509 5.89064 2.5279
LeftLeg  9.71745 21.3999 3.44374
LeftFoot  -11.2351 0.0759861 -9.14951
LeftToes  -8.4584e-011 5.90861e-011 8.40072e-012
462
root  0.0496301 39.8447 -35.9911 0.686825 -36.0204 -0.996107
RightUpLeg  -15.5872 -13.4367 -7.28222
RightLeg  16.3647 -12.3137 -4.25738
RightFoot  1.78181 -1.20248 10.6029
RightToes  -5.82094e-011 -1.98785e-016 -5.10186e-018
Spine  17.5789 0.0651205 -9.74943
Spine1  5.88977 -3.83912 8.46696
HEad  -8.89714 32.3133 -17.7506
LeftShoulder1  1.42564 -1.26933 -23.6058
LeftArm  -24.6731 19.9953 -49.4101
LeftForeArm  -153.29 -74.7915 -150.124
LeftHand  -0.995654 -0.572106 19.4198
RightShoulder  2.6602 4.22557 28.4861
RightArm  0.766207 -25.0334 39.4353
RightForeArm  13.0545 29.9614 5.80687
RightHand  -1.74754 7.92281 -15.4877
LeftUpLeg  3.94661 6.28175 2.62764
LeftLeg  10.4798 21.6064 3.77792
LeftFoot  -10.7043 0.112931 -8.79751
LeftToes  -8.4584e-011 5.90861e-011 8.40072e-012
